<svg xmlns="http://www.w3.org/2000/svg" viewBox="289 0 34 68"><linearGradient id="a" gradientUnits="userSpaceOnUse" x1="16.996" y1="789.081" x2="16.996" y2="792" gradientTransform="matrix(11.647 0 0 -11.647 108 9224.47)"><stop offset="0" stop-color="#FFF" stop-opacity="0"/><stop offset=".84" stop-color="#34A6DE"/></linearGradient><path fill="url(#a)" d="M305.6 0C296.4 0 289 7.6 289 17c0 6.4 3.4 11.9 8.5 14.8l.7-1.2c-4.7-2.7-7.8-7.8-7.8-13.6 0-8.6 6.8-15.6 15.2-15.6 8.4 0 15.9 7 15.9 15.6S314 32.5 307 32.6V34c7-.1 15.9-7.6 15.9-17s-8.1-17-17.3-17z"/><path fill="#34A6DE" d="M307 0v1.4c7 .1 14.5 7 14.5 15.6s-7.1 15.5-15.4 15.6c-.4 0-.8.3-.8.7s.2.7.6.7c9.1-.1 17.1-7.6 17.1-17-.1-9.3-9-16.9-16-17z"/><path fill="#CCC" d="M315.5 44.8l-.2-.6-.6.2c-.1.1-1.9.7-6.6 2.5-.5-.5-1.5-1.3-3-1.4h-.3c.1-.5.2-1.2.4-2.1l.1-.6-.6-.1h-.4c-.7 0-1.9.2-2.9 1.5-.5-.4-1.2-.9-2.3-1-.8-.1-1.6 0-2.5.3l-1.1.4.5.3.4.3c1.8 1.4 2.8 3.5 3 5.8.1 2.1-.6 4.1-1.9 5.6-.5.5-1 .9-1.5 1.3l-.2.1-.2.1-.8.5c.1.2.2.3.3.5.1.2.2.3.4.5v.1h.1c.3-.2.7-.4 1-.6.6-.4 1.2-1 1.7-1.5 1.6-1.8 2.4-4.1 2.2-6.6-.1-2.2-1-4.3-2.5-5.9h.8c1.4.2 2 1.1 2 1.2l.6 1.1.5-1.1c.5-1.1 1.2-1.4 1.8-1.5-.5 2.4-.4 2.4-.2 2.7l.2.2h1.2c1.5.2 2.4 1.3 2.5 1.3l.3.3.4-.2c3.5-1.3 5.5-2.1 6.3-2.4 1.3 4.3-1.2 7.8-3.3 8.8-3.7 1.8-4 4.1-4.2 6.8V63.9h.1c.2 0 .4 0 .5-.1.2 0 .5-.1.7-.1V63v-.2-.3-.8c.1-2.4.4-4.2 3.4-5.6 3-1.6 5.8-6.2 3.9-11.3z"/></svg>