<svg xmlns="http://www.w3.org/2000/svg" viewBox="0 0 20 40"><path fill="#CCC" d="M14.5 20h-9c-3 0-5.5-2.5-5.5-5.5v-9C0 2.5 2.5 0 5.5 0h9c3 0 5.5 2.5 5.5 5.5v9c0 3-2.5 5.5-5.5 5.5zm-9-18C3.6 2 2 3.6 2 5.5v9C2 16.4 3.6 18 5.5 18h9c1.9 0 3.5-1.6 3.5-3.5v-9C18 3.6 16.4 2 14.5 2h-9zM18 29.1v5.4c0 1.9-1.6 3.5-3.5 3.5h-9C3.6 38 2 36.4 2 34.5v-9C2 23.6 3.6 22 5.5 22h8.3l1.6-1.9c-.3 0-.6-.1-.9-.1h-9c-3 0-5.5 2.5-5.5 5.5v9c0 3 2.5 5.5 5.5 5.5h9c3 0 5.5-2.5 5.5-5.5v-7.8l-2 2.4z"/><path fill="#33A8E0" d="M19.4 21.2c-.6-.5-1.6-.3-2.1.3L10 30.3l-2.4-2.6c-.5-.6-1.5-.6-2.1-.2-.3.3-.5.6-.5 1s.1.8.4 1.1L9 33.5c.3.3.7.5 1.1.5.5 0 .9-.2 1.2-.6l8.4-10.2c.3-.3.4-.7.3-1.1-.1-.3-.3-.6-.6-.9z"/></svg>