<svg xmlns="http://www.w3.org/2000/svg" viewBox="0 0 20 21"><path fill="#999" d="M17.7 1.4h-1.8v1.7c0 .6-.5 1.2-1.2 1.2-.6 0-1.2-.5-1.2-1.2V1.4H6.4v1.7c0 .6-.5 1.2-1.2 1.2-.6 0-1.2-.5-1.2-1.2V1.4H2.3C1 1.4 0 2.5 0 3.7v15C0 20 1 21 2.3 21h15.5c1.2 0 2.3-1 2.3-2.3v-15C20 2.5 19 1.4 17.7 1.4zm.8 17.3c0 .4-.4.8-.8.8H2.3c-.4 0-.8-.4-.8-.8V7.1h17.1v11.6zM5.3 3.6c.2 0 .4-.2.4-.4V.4c0-.2-.2-.4-.4-.4-.3 0-.5.2-.5.4v2.7c0 .3.2.5.5.5zm9.4 0c.2 0 .4-.2.4-.4V.4c.1-.2-.1-.4-.4-.4-.2 0-.4.2-.4.4v2.7c0 .3.2.5.4.5zM9.2 16.4c.5-.4.8-.9.8-1.6 0-.5-.2-.9-.5-1.2-.3-.3-.7-.5-1.3-.5.5-.1.9-.3 1.2-.7.3-.3.4-.7.4-1.2s-.2-1-.7-1.3c-.4-.3-1-.5-1.8-.5-.9 0-1.7.2-2.4.7l.7 1.1c.3-.2.6-.3.8-.4.2-.1.5-.1.7-.1.7 0 1 .3 1 .8 0 .4-.1.6-.4.8-.3.1-.7.2-1.2.2h-.4v1.2h.5c.6 0 1.1.1 1.3.2.3.1.4.4.4.7 0 .4-.1.7-.4.8-.2.2-.6.3-1.1.3-.3 0-.7 0-1-.1-.3-.1-.6-.2-.9-.4v1.3c.7.4 1.3.5 2.1.5 1 0 1.7-.2 2.2-.6zm3.3-4.7c.1-.1.3-.2.5-.5v5.7h1.5V9.6h-1.3l-2.3 1.9.7.9.9-.7z"/></svg>