<svg xmlns="http://www.w3.org/2000/svg" viewBox="0 0 20 18"><path fill="#33A8E0" d="M17.3 7.8c-2.1.9-2.4 2.2-2.5 3.7-.1.8-.2 1.6.1 4.2.7.2 1.1 1.3 1.1 1.3h-2.5c-.3 0-.5.1-.5-.2v.2h-.2v-2.9c0 .1-1.2 3.6-5 3.9-3.6.2-5.3-2.7-5.5-3.1-.4.2-.3 1-.3 1 .7.1 1.1.7 1.1 1.5H.6c-.3 0-.5-.3-.5-.6 0 0-.2-3.5-.1-6.8.2-3.5 1-4.4 1.2-4.6.2 2.9 2.3 4.2 4.4 4.2 2.7 0 5-2.4 5-5.3 0-1.6-.7-3.1-1.7-4 2.1-.6 2.8.9 2.8.9.7-1.4 2-1.1 2-1.1-.5 1.9-.4 1.8-.4 1.8 1.4-.1 2.3 1.1 2.3 1.1 3.2-1 4.3-1.4 4.3-1.4.8 2.9-.9 5.5-2.6 6.2z"/></svg>