<svg xmlns="http://www.w3.org/2000/svg" viewBox="0 0 10 20"><path fill="#33A8E0" d="M10 13.8c0-.1-.2-.2-.3-.2l-3.3-.1-1.1-3.3c-.1-.1-.2-.2-.3-.2-.1 0-.2.1-.3.2l-1.1 3.3-3.3.1c-.1 0-.2.1-.3.2 0 .1 0 .3.1.4l2.7 2.1-1 3.3c0 .1 0 .3.1.3.1.1.3.1.4 0L5 18l2.7 2s.1.1.2.1l.2-.2c.1-.1.1-.2.1-.3l-1-3.3 2.7-2.1c.1-.1.1-.3.1-.4z"/><path fill="#CCC" d="M10 3.8c0-.1-.2-.2-.3-.2l-3.3-.1L5.3.2C5.2.1 5.1 0 5 0c-.1 0-.2.1-.3.2L3.6 3.5l-3.3.1c-.1 0-.2.1-.3.2 0 .1 0 .3.1.4l2.7 2.1-1 3.3c0 .1 0 .3.1.3.1.1.3.1.4 0L5 8l2.7 2s.1.1.2.1l.2-.2c.1-.1.1-.2.1-.3l-1-3.3 2.7-2.1c.1-.1.1-.3.1-.4z"/></svg>