<svg xmlns="http://www.w3.org/2000/svg" viewBox="0 0 21 30"><path fill="#FFF" d="M6.1 15l.2-.5 1.6-4.7C8.3 8.7 9.3 8 10.5 8s2.2.7 2.6 1.8l1.6 4.7.2.5h2V1c0-.3-.1-.5-.3-.7-.3-.2-.6-.3-.8-.3H5.2c-.5 0-1 .5-1 1.1v14h1.1l.8-.1zM21 17.6c-.1-.3-.3-.4-.6-.4l-3.6-.1h-3.5l-.2-.6-2.1-5.9c-.1-.3-.3-.4-.6-.4s-.5.2-.6.4l-2.1 5.9-.2.6H4l-3.6.1c-.3 0-.5.2-.6.4-.1.3 0 .5.2.7l5.6 4.2-2 6.6c-.1.3 0 .5.2.7.1 0 .1.1.2.1h.4c.1 0 .1 0 .2-.1l5.7-4 5.7 4c.1.1.2.1.4.1.1 0 .3 0 .4-.1.2-.2.3-.4.2-.7l-2-6.6 5.6-4.2c.4-.1.5-.4.4-.7z"/></svg>