<svg xmlns="http://www.w3.org/2000/svg" viewBox="0 0 12 23"><path fill="#666766" d="M11.8.2c-.3-.3-.8-.3-1.1 0L5.9 5 1.3.2C1-.1.5-.1.2.2s-.3.8 0 1.2l5.2 5.3c.1.2.3.3.5.3s.4-.1.6-.2l5.2-5.3c.4-.4.4-.9.1-1.3z"/><path fill="#33A9E0" d="M11.8 8.2c-.3-.3-.8-.3-1.1 0L5.9 13 1.3 8.2C1 7.9.5 7.9.2 8.2c-.3.3-.3.8 0 1.2l5.2 5.3c.1.2.3.3.5.3s.4-.1.6-.2l5.2-5.3c.4-.4.4-.9.1-1.3z"/><path fill="#FFF" d="M11.8 16.2c-.3-.3-.8-.3-1.1 0L5.9 21l-4.6-4.8c-.3-.3-.8-.3-1.1 0-.3.3-.3.8 0 1.2l5.2 5.3c.1.2.3.3.5.3s.4-.1.6-.2l5.2-5.3c.4-.4.4-.9.1-1.3z"/></svg>