<svg xmlns="http://www.w3.org/2000/svg" viewBox="0 0 44 44"><path fill="#FFF" d="M29.6 14.5s-1.1-1.5-2.9-1.3c0 0-.1.1.5-2.2 0 0-1.6-.4-2.5 1.3 0 0-.9-1.9-3.6-1.1 1.4 1.2 2.2 2.9 2.2 4.9 0 3.6-2.8 6.4-6.3 6.4-2.8 0-5.3-1.5-5.6-5.1-.2.3-1.2 1.3-1.4 5.7-.2 4 .1 8.3.1 8.3 0 .4.3.7.7.7H14c-.1-.9-.6-1.7-1.5-1.8 0 0-.1-.9.4-1.2.2.5 2.5 4 7.1 3.7 4.9-.3 6.4-4.6 6.4-4.8 0 .5.1 3.4.1 3.4 0 .4.3.7.7.7h3.2c0-1-.5-1.6-1.4-1.8-.3-3.1-.2-4.3-.1-5.3.2-1.9.5-3.5 3.2-4.6 2.2-.9 4.2-4 3.1-7.6-.1 0-1.5.4-5.6 1.7z"/><path fill="#33A8E0" d="M39 0H5C2.2 0 0 2.2 0 5v34c0 2.7 2.2 5 5 5h34c2.7 0 5-2.2 5-5V5c0-2.8-2.2-5-5-5zm-7 20.4c-2.6 1.1-3 2.6-3.2 4.6-.1 1-.2 2.2.1 5.3.9.2 1.3.9 1.4 1.8h-3.2c-.4 0-.7-.3-.7-.7 0 0-.1-3-.1-3.4 0 .2-1.5 4.4-6.4 4.8-4.6.2-6.9-3.3-7.1-3.8-.5.3-.4 1.2-.4 1.2.9.2 1.3.9 1.5 1.8h-3.2c-.4 0-.7-.3-.7-.7 0 0-.3-4.3-.1-8.3.2-4.4 1.2-5.4 1.4-5.7.3 3.6 2.9 5.1 5.6 5.1 3.5 0 6.3-2.9 6.3-6.4 0-2-.9-3.7-2.2-4.9 2.7-.7 3.6 1.1 3.6 1.1.9-1.7 2.5-1.3 2.5-1.3-.6 2.3-.5 2.2-.5 2.2 1.8-.1 2.9 1.3 2.9 1.3 4.1-1.3 5.5-1.7 5.5-1.7 1.3 3.7-.8 6.8-3 7.7z"/></svg>